<svg width="26" height="26" viewBox="0 0 26 26" fill="none" xmlns="http://www.w3.org/2000/svg">
<path fill-rule="evenodd" clip-rule="evenodd" d="M0.82047 0C0.36734 0 0 0.35728 0 0.79801V1.39948C0 1.84021 0.36734 2.19749 0.82047 2.19749H2.72716C3.03867 2.19749 3.3233 2.36906 3.46192 2.64038L4.4947 4.93251C4.53326 5.00798 4.56364 5.09443 4.62081 5.15194L9.057 15.4429C9.0129 15.4634 8.97056 15.4883 8.93075 15.5176C7.70163 16.4226 6.87009 17.5878 6.87001 18.7604C6.86996 19.4429 7.16289 20.0807 7.75002 20.5212C8.30752 20.9394 9.0364 21.1118 9.8189 21.1118H9.8446C9.336 21.6308 9.0238 22.3336 9.0238 23.1072C9.0238 24.7049 10.3554 26 11.998 26C13.6406 26 14.9722 24.7049 14.9722 23.1072C14.9722 22.3336 14.66 21.6308 14.1513 21.1118H18.0494C17.5408 21.6308 17.2285 22.3336 17.2285 23.1072C17.2285 24.7049 18.5601 26 20.2027 26C21.8454 26 23.177 24.7049 23.177 23.1072C23.177 22.3336 22.8647 21.6308 22.3561 21.1118H22.9718C23.425 21.1118 23.7923 20.7545 23.7923 20.3138V19.9148C23.7923 19.474 23.425 19.1167 22.9718 19.1167H9.8189C9.3192 19.1167 9.0864 19.0041 9.0028 18.9414C8.94878 18.9009 8.92119 18.8618 8.9212 18.7606C8.92122 18.4917 9.1711 17.8708 10.069 17.1827C10.1084 17.1524 10.1453 17.1194 10.1792 17.084C10.2692 17.1089 10.3635 17.1221 10.4601 17.1221H22.9235C23.4248 17.1221 23.8527 16.7696 23.9351 16.2885L25.9858 4.31837C26.09 3.71036 25.6079 3.1569 24.9742 3.1569H6.35431C6.1981 3.1569 6.05618 3.06597 5.9909 2.92405L4.84968 0.44289C4.71106 0.17157 4.42642 0 4.11492 0H0.82047ZM7.47667 5.15194C7.18952 5.15194 6.99591 5.44552 7.10899 5.70946L11.04 14.8846C11.103 15.0317 11.2476 15.1271 11.4076 15.1271H21.7173C21.9122 15.1271 22.0787 14.9867 22.1116 14.7946L23.6834 5.61948C23.7253 5.37513 23.5371 5.15194 23.2892 5.15194H7.47667ZM10.8698 23.1072C10.8698 22.5012 11.3749 22.0099 11.998 22.0099C12.621 22.0099 13.1261 22.5012 13.1261 23.1072C13.1261 23.7132 12.621 24.2045 11.998 24.2045C11.3749 24.2045 10.8698 23.7132 10.8698 23.1072ZM20.2027 22.0099C19.5797 22.0099 19.0746 22.5012 19.0746 23.1072C19.0746 23.7132 19.5797 24.2045 20.2027 24.2045C20.8258 24.2045 21.3309 23.7132 21.3309 23.1072C21.3309 22.5012 20.8258 22.0099 20.2027 22.0099Z" fill="#D43B3B"/>
</svg>
