<svg width="26" height="26" viewBox="0 0 26 26" fill="none" xmlns="http://www.w3.org/2000/svg">
<path d="M3.91275 2.42381L3.91778 2.43498L4.94609 4.71718C4.9573 4.73964 4.96726 4.76098 4.97441 4.77628L4.97564 4.77892C4.98463 4.79816 4.98997 4.80949 4.99468 4.81882L5.04237 4.86679L5.07997 4.95401L9.51616 15.245L9.70859 15.6914L9.26777 15.8963L3.91275 2.42381ZM3.91275 2.42381L3.90717 2.4129M3.91275 2.42381L3.90717 2.4129M3.90717 2.4129C3.6807 1.96963 3.22117 1.69749 2.72716 1.69749H0.82047C0.630307 1.69749 0.5 1.55107 0.5 1.39948V0.79801C0.5 0.646416 0.630308 0.5 0.82047 0.5H4.11492C4.24094 0.5 4.34856 0.56775 4.4008 0.663512L5.53665 3.13299L5.53665 3.13299C5.68353 3.45231 6.00285 3.6569 6.35431 3.6569H24.9742C25.3147 3.6569 25.5421 3.94757 25.493 4.23391L25.493 4.23394L23.4423 16.2041L23.4423 16.2041C23.4027 16.4354 23.1912 16.6221 22.9235 16.6221H10.4601C10.4092 16.6221 10.3597 16.6152 10.3125 16.6021L10.0247 16.5225M3.90717 2.4129L10.0247 16.5225M10.0247 16.5225L9.81808 16.7382M10.0247 16.5225L9.81808 16.7382M9.81808 16.7382C9.80219 16.7548 9.78424 16.7709 9.76434 16.7862M9.81808 16.7382L9.76434 16.7862M8.49391 19.0961C8.43297 18.9734 8.42119 18.8526 8.4212 18.7606C8.42122 18.497 8.53284 18.1809 8.73643 17.8606C8.94709 17.5292 9.27649 17.1602 9.76434 16.7862M8.49391 19.0961L9.76486 16.7858C9.76469 16.786 9.76451 16.7861 9.76434 16.7862M8.49391 19.0961C8.55715 19.2235 8.64711 19.2996 8.7028 19.3414L8.49391 19.0961ZM7.37001 18.7604C7.37007 17.8213 8.05091 16.7864 9.22713 15.9203L8.70287 19.3415C8.90085 19.4899 9.25198 19.6167 9.8189 19.6167H22.9718C23.162 19.6167 23.2923 19.7631 23.2923 19.9148V20.3138C23.2923 20.4654 23.162 20.6118 22.9718 20.6118H22.3561H21.1661L21.999 21.4618C22.4211 21.8925 22.677 22.4716 22.677 23.1072C22.677 24.4158 21.5824 25.5 20.2027 25.5C18.8231 25.5 17.7285 24.4158 17.7285 23.1072C17.7285 22.4716 17.9844 21.8925 18.4065 21.4618L19.2394 20.6118H18.0494H14.1513H12.9611L13.7942 21.4618C14.2164 21.8925 14.4722 22.4715 14.4722 23.1072C14.4722 24.4158 13.3776 25.5 11.998 25.5C10.6184 25.5 9.5238 24.4158 9.5238 23.1072C9.5238 22.4715 9.77964 21.8925 10.2017 21.4618L11.0346 20.6118H9.8446H9.8189C9.10233 20.6118 8.49239 20.453 8.05005 20.1212C7.59397 19.779 7.36997 19.2921 7.37001 18.7604ZM6.64939 5.90636L6.6494 5.90637L10.5804 15.0814C10.7221 15.4124 11.0475 15.6271 11.4076 15.6271H21.7173C22.1558 15.6271 22.5304 15.3112 22.6044 14.879C22.6044 14.879 22.6044 14.879 22.6044 14.879L24.1762 5.70399C24.2705 5.15415 23.847 4.65194 23.2892 4.65194H7.47667C6.8306 4.65194 6.39496 5.31249 6.64939 5.90636ZM11.998 21.5099C11.1119 21.5099 10.3698 22.2121 10.3698 23.1072C10.3698 24.0023 11.1119 24.7045 11.998 24.7045C12.884 24.7045 13.6261 24.0023 13.6261 23.1072C13.6261 22.2121 12.884 21.5099 11.998 21.5099ZM20.2027 21.5099C19.3167 21.5099 18.5746 22.2121 18.5746 23.1072C18.5746 24.0023 19.3167 24.7045 20.2027 24.7045C21.0888 24.7045 21.8309 24.0023 21.8309 23.1072C21.8309 22.2121 21.0888 21.5099 20.2027 21.5099Z" stroke="#D43B3B"/>
</svg>
