<svg width="26" height="26" viewBox="0 0 26 26" fill="none" xmlns="http://www.w3.org/2000/svg">
<g clip-path="url(#clip0_0_172)">
<path d="M25.2045 0.526646C25.129 0.338812 24.9841 0.187285 24.7998 0.10359C24.6155 0.0198941 24.406 0.0104736 24.215 0.0772878C24.0239 0.144102 23.866 0.282007 23.774 0.462313C23.682 0.642619 23.6631 0.851445 23.7212 1.04535C24.9289 4.51635 22.5317 7.10855 20.7039 8.49695L19.9655 7.43875C19.7172 7.08385 19.1621 6.78875 18.7305 6.78355L14.5861 6.80175C14.0798 6.81704 13.5871 6.96885 13.16 7.24115L0.947762 15.8042C0.663705 16.0041 0.470427 16.3084 0.410245 16.6505C0.350063 16.9926 0.427882 17.3446 0.626662 17.6294L6.17636 25.5698C6.59236 26.1613 7.25666 26.0898 7.84946 25.6764L20.0617 17.112C20.4127 16.8637 20.8183 16.3281 20.9613 15.9186L22.2587 11.8301C22.4017 11.4219 22.3146 10.7992 22.0663 10.4443L21.6165 9.79955C24.0709 7.91845 26.6189 4.59435 25.2045 0.526646ZM19.5222 12.692C19.2972 12.8495 19.0434 12.9611 18.7753 13.0205C18.5071 13.0799 18.2299 13.0858 17.9595 13.038C17.6891 12.9902 17.4307 12.8896 17.1992 12.7419C16.9677 12.5942 16.7675 12.4023 16.6102 12.1772C16.2916 11.7218 16.1667 11.1585 16.263 10.6111C16.3593 10.0637 16.6688 9.57687 17.1237 9.25745C17.4803 9.00761 17.906 8.87543 18.3414 8.87939C18.7768 8.88336 19.2001 9.02326 19.5521 9.27955C19.1985 9.49275 18.9554 9.61755 18.9099 9.63705C18.7487 9.71388 18.6184 9.84318 18.5404 10.0037C18.4623 10.1643 18.4411 10.3466 18.4803 10.5208C18.5194 10.695 18.6165 10.8507 18.7558 10.9625C18.895 11.0743 19.068 11.1354 19.2466 11.1359C19.3584 11.1359 19.4728 11.1099 19.5807 11.0592C19.8329 10.9396 20.1033 10.7979 20.3854 10.6302C20.4503 11.0203 20.4037 11.4208 20.2509 11.7856C20.0982 12.1503 19.8456 12.4645 19.5222 12.692Z" fill="white"/>
</g>
<defs>
<clipPath id="clip0_0_172">
<rect width="26" height="26" fill="white"/>
</clipPath>
</defs>
</svg>
