<svg width="21" height="20" viewBox="0 0 21 20" fill="none" xmlns="http://www.w3.org/2000/svg">
<path d="M18.4732 7.90846H14.4511L10.7732 2.4418C10.6137 2.20846 10.345 2.0918 10.0763 2.0918C9.8076 2.0918 9.5389 2.20846 9.37936 2.45013L5.70152 7.90846H1.67941C1.21758 7.90846 0.839722 8.28346 0.839722 8.7418C0.839722 8.8168 0.848119 8.8918 0.873309 8.9668L3.00612 16.6918C3.19925 17.3918 3.84581 17.9085 4.61832 17.9085H15.5343C16.3068 17.9085 16.9534 17.3918 17.1549 16.6918L19.2877 8.9668L19.3129 8.7418C19.3129 8.28346 18.935 7.90846 18.4732 7.90846ZM10.0763 4.40846L12.4274 7.90846H7.72517L10.0763 4.40846ZM15.5343 16.2418L4.62672 16.2501L2.7794 9.57513H17.3816L15.5343 16.2418ZM10.0763 11.2418C9.15265 11.2418 8.39692 11.9918 8.39692 12.9085C8.39692 13.8251 9.15265 14.5751 10.0763 14.5751C11 14.5751 11.7557 13.8251 11.7557 12.9085C11.7557 11.9918 11 11.2418 10.0763 11.2418Z" fill="#8B96A5"/>
</svg>
